<svg width="46" height="44" viewBox="0 0 46 44" fill="none" xmlns="http://www.w3.org/2000/svg">
<path d="M40.0405 21.3265C40.0405 20.6587 39.9692 19.9988 39.8243 19.3468C39.8176 19.2727 39.817 19.198 39.803 19.125C39.3672 16.8257 38.4691 14.7219 37.119 12.8124C36.3614 11.7419 35.501 10.7624 34.485 9.92731C34.4182 9.86329 34.3547 9.79533 34.2839 9.73692C31.4719 7.41855 28.2488 6.16558 24.6044 6.0145C23.5862 5.97238 22.5702 6.01731 21.5655 6.21163C21.4818 6.21837 21.397 6.21837 21.315 6.23353C19.1696 6.63846 17.154 7.38092 15.3326 8.59964C11.4322 11.2089 9.01889 14.8196 8.22701 19.4479C7.69347 22.5666 8.10345 25.592 9.42494 28.4877C12.4217 35.0542 19.6161 39.3888 27.4086 37.5916C33.656 36.1505 37.6756 32.181 39.5306 26.0452C39.9945 24.5109 40.1197 22.9266 40.0405 21.3265ZM38.3596 25.7083C36.6618 31.174 33.1444 34.9076 27.5563 36.2679C21.329 37.7831 16.1779 35.7495 12.2342 30.7376C10.1904 28.1407 9.15761 25.1405 9.21827 21.8224C9.29409 17.6973 10.9043 14.213 13.8572 11.3622C15.8577 9.43084 18.2368 8.15933 20.9623 7.5584C20.9977 7.55053 21.0303 7.53144 21.0645 7.5174C21.0802 7.532 21.0965 7.54323 21.1134 7.55166C21.1285 7.53256 21.1448 7.51627 21.1622 7.50392C21.8328 7.41294 22.5006 7.29612 23.1779 7.25961C27.0301 7.05518 30.4312 8.21212 33.4157 10.6394C34.3777 11.4218 35.2331 12.3159 35.952 13.3133C37.4335 15.3711 38.4495 17.6367 38.7606 20.1847C38.8729 21.1013 38.8875 22.0184 38.8606 22.9384H38.8589C38.8589 22.9384 38.8538 22.9412 38.851 22.9434C38.8538 22.9474 38.8566 22.9513 38.86 22.9547C38.7584 23.8847 38.6382 24.8125 38.3596 25.7083Z" fill="white"/>
<path d="M36.4877 21.8247C32.4042 17.7731 28.3184 13.7239 24.2388 9.6684C24.0815 9.51227 24.004 9.48531 23.8299 9.65942C20.8461 12.6411 17.8543 15.6148 14.8637 18.5903C13.7837 19.6647 12.702 20.7379 11.6209 21.8118C11.4923 21.8932 11.3867 21.978 11.5748 22.1083C11.7405 22.2661 11.9062 22.4234 12.0719 22.5812C12.1471 22.6632 12.219 22.7485 12.2976 22.8272C16.129 26.6383 19.9632 30.4478 23.7895 34.2651C23.9782 34.4533 24.0692 34.4909 24.2809 34.2786C26.4724 32.0804 28.679 29.8968 30.8788 27.7065C31.7859 26.8034 32.6856 25.8936 33.5887 24.9866C34.576 24.0178 35.5616 23.0473 36.5523 22.0825C36.6978 21.9404 36.5557 21.8926 36.4877 21.8247ZM24.6437 31.9821V29.4021C24.6426 28.4759 24.6426 27.5493 24.6415 26.6232V26.6024C24.6409 26.1233 24.6409 25.6448 24.6398 25.1663V25.1461C24.6392 24.6142 24.6387 24.0824 24.6375 23.5505V23.5449C24.6375 23.3309 24.637 23.1175 24.6364 22.9035V22.8805C24.6364 22.7396 24.6426 22.6547 24.8465 22.6553C26.8419 22.6615 28.8373 22.6626 30.8322 22.6632H30.8491C31.8403 22.6632 32.8316 22.6632 33.8228 22.6637C33.8577 22.6637 33.8925 22.6699 33.9902 22.6783C30.8895 25.8088 27.7995 28.8797 24.6437 31.9821ZM24.646 12.0581C24.7707 12.0957 24.8364 12.1873 24.9116 12.2608C25.9343 13.2628 26.9554 14.2669 27.9775 15.2694C28.0438 15.3346 28.1157 15.3936 28.1847 15.4553C28.2179 15.4879 28.251 15.5199 28.2842 15.5519C28.4038 15.7025 28.538 15.8389 28.6924 15.9541C28.711 16.0035 28.7447 16.0377 28.7947 16.0551C28.8199 16.1119 28.8604 16.1529 28.9177 16.1765C29.3759 16.6415 29.8297 17.1104 30.2925 17.571C31.2916 18.5639 32.2952 19.5529 33.2966 20.5431C33.3185 20.5992 33.3573 20.6391 33.4134 20.661C33.432 20.7138 33.4673 20.7497 33.5201 20.7683C33.542 20.825 33.5808 20.8643 33.6375 20.8862C33.6566 20.9384 33.692 20.9738 33.7442 20.9929C33.806 21.071 33.8678 21.1485 33.9284 21.2249C33.8689 21.2996 33.7981 21.2675 33.7386 21.2675C30.8098 21.2681 27.8803 21.2642 24.9515 21.2704C24.7201 21.2709 24.6359 21.2383 24.637 20.9733C24.6415 19.4895 24.642 18.0051 24.6409 16.5213V16.5056C24.6449 16.3017 24.6493 16.1001 24.6595 15.8962C24.6684 15.7058 24.6538 15.5132 24.6404 15.32V15.3048C24.6392 14.2742 24.6376 13.2442 24.637 12.2137C24.637 12.1687 24.642 12.1232 24.646 12.0581ZM23.3059 12.162C23.3408 12.2266 23.3531 12.3007 23.3498 12.3895C23.3481 12.4327 23.3453 12.4911 23.3593 12.536V13.16C23.3172 13.2285 23.3492 13.3268 23.3492 13.4009C23.343 15.9462 23.3441 18.4915 23.3441 21.0367C23.3441 21.0783 23.3464 21.1193 23.3514 21.1586C23.334 21.2305 23.2835 21.2732 23.138 21.2726C20.2109 21.2636 17.2837 21.2664 14.356 21.2664H14.1431C17.2006 18.196 20.2142 15.1852 23.3059 12.162ZM23.3604 31.78C23.3604 31.8047 23.352 31.8288 23.3391 31.9035C20.2255 28.8545 17.177 25.7914 14.0903 22.6609H15.7168C18.1767 22.6609 20.6371 22.662 23.0976 22.6592C23.2627 22.6592 23.3672 22.6525 23.3666 22.8833C23.3576 25.8487 23.361 28.814 23.3604 31.78Z" fill="white"/>
<path d="M19.5802 31.5401C18.9725 31.5424 18.3643 31.5463 17.7566 31.5328C15.9044 31.4907 14.5744 30.1468 14.5514 28.2973C14.5441 27.6897 14.5492 27.082 14.5469 26.4738C14.5469 26.3828 14.5649 26.2862 14.4874 26.2104C14.1291 25.861 13.7724 25.5111 13.3731 25.1203C13.4226 26.3036 13.3451 27.4257 13.4203 28.5473C13.577 30.8729 15.3264 32.5937 17.6538 32.6662C18.7096 32.6988 19.7672 32.6757 20.8241 32.6769C20.8657 32.6769 20.9191 32.6926 20.946 32.6241C20.6102 32.3068 20.2693 31.9894 19.9345 31.6654C19.8318 31.5654 19.7183 31.5396 19.5802 31.5401Z" fill="white"/>
<path d="M28.5155 12.4641C29.1052 12.4574 29.6944 12.4546 30.2835 12.4664C31.9673 12.499 33.3612 13.7615 33.5443 15.4368C33.6173 16.1068 33.5578 16.783 33.5679 17.4558C33.569 17.5479 33.537 17.6496 33.6004 17.7288C33.9329 18.1388 34.3204 18.4937 34.7186 18.852C34.704 17.6159 34.8304 16.391 34.6456 15.1762C34.3474 13.2117 32.8215 11.6453 30.9434 11.3976C29.6899 11.232 28.4268 11.3729 27.1682 11.3201C27.4911 11.6622 27.7978 11.9778 28.0932 12.303C28.2123 12.4338 28.3465 12.4664 28.5155 12.4641Z" fill="white"/>
<path d="M14.4003 17.8259C14.5132 17.7097 14.5486 17.5833 14.5458 17.4238C14.5362 16.8908 14.5357 16.3579 14.5396 15.8249C14.5548 13.9131 15.9493 12.5012 17.8627 12.4658C18.4423 12.4557 19.0219 12.4675 19.6015 12.467C19.6846 12.467 19.8003 12.4872 19.8458 12.4428C20.2109 12.0806 20.563 11.706 20.9112 11.342C19.8087 11.342 18.695 11.2949 17.5864 11.3521C15.3916 11.4661 13.6584 13.1577 13.4304 15.3458C13.3102 16.5022 13.4091 17.6625 13.4254 18.8554C13.75 18.5117 14.0712 18.1652 14.4003 17.8259Z" fill="white"/>
<path d="M34.7119 27.023C34.7214 26.403 34.7141 25.783 34.7141 25.0927C34.3581 25.4595 34.0233 25.7498 33.7425 26.0947C33.5802 26.1924 33.5415 26.3395 33.5409 26.5226C33.5398 27.2803 33.6128 28.0435 33.51 28.7944C33.2977 30.3461 32.0375 31.4649 30.4554 31.53C29.7921 31.5576 29.1271 31.5357 28.4627 31.5368C28.3617 31.5373 28.26 31.5194 28.1752 31.6075C27.8354 31.9597 27.4911 32.3079 27.1165 32.6903C28.3869 32.6589 29.6191 32.7386 30.8496 32.6364C31.0164 32.6229 31.1832 32.5881 31.3467 32.5511C33.1826 32.1327 34.6344 30.4152 34.6563 28.6388C34.667 28.613 34.6782 28.5883 34.6782 28.5591V28.5119C34.754 28.0177 34.7046 27.5189 34.7119 27.023Z" fill="white"/>
</svg>
